<svg width="55" height="55" viewBox="0 0 55 55" fill="none" xmlns="http://www.w3.org/2000/svg">
<path fill-rule="evenodd" clip-rule="evenodd" d="M21.9267 24.8471C21.3988 24.8314 21.0266 24.3909 21.0612 23.8666L21.1003 23.2748C21.1283 22.8508 21.4134 22.4903 21.7916 22.3239H30.2259C32.7588 22.3239 34.8122 20.2706 34.8122 17.7377C34.8122 15.2048 32.7588 13.1515 30.2259 13.1515H24.6993C21.3614 13.1012 17.5253 13.0609 15.7502 13.0453C15.2076 13.0405 14.7693 12.6167 14.7452 12.078L14.7299 11.7376C14.7045 11.1696 15.1482 10.6921 15.7205 10.6838C19.2024 10.6334 29.8346 10.541 30.7821 10.6669C31.8751 10.8122 32.9203 11.197 33.8392 11.7927C34.7582 12.3884 35.5271 13.1793 36.0883 14.1064C36.6496 15.0334 36.9886 16.0724 37.08 17.1455C37.1714 18.2186 37.0129 19.2981 36.6162 20.3028C36.2194 21.3076 35.5949 22.2117 34.7894 22.9474C33.9838 23.683 33.0182 24.2311 31.9648 24.5506C31.0655 24.8234 24.5055 24.9235 21.9267 24.8471Z" fill="#155EEF"/>
<path fill-rule="evenodd" clip-rule="evenodd" d="M14.9381 32.7202C14.9523 32.2693 15.3056 31.9276 15.7514 31.8842L16.2872 31.832C16.9279 31.7695 17.4944 32.3382 17.4916 32.9868C17.4882 33.7622 17.518 34.6984 17.5609 35.484L17.5609 35.6363C17.5609 35.894 17.5819 36.1469 17.6223 36.3932C17.6303 36.4882 17.6385 36.5759 17.6466 36.6551C17.6673 36.7015 17.6862 36.7437 17.7034 36.7822C18.2136 38.7924 20.0352 40.2795 22.2041 40.2795C24.7684 40.2795 26.8473 38.2006 26.8473 35.6363L26.8473 26.2119C26.9646 25.8034 27.3349 25.5047 27.7778 25.4982L28.1788 25.4923C28.7189 25.4843 29.1666 25.9157 29.1773 26.4595C29.2284 29.0382 29.3129 35.4059 29.1903 36.3312C29.045 37.4268 28.6601 38.4745 28.0645 39.3957C27.4688 40.3168 26.6778 41.0876 25.7508 41.6502C24.8238 42.2129 23.7848 42.5527 22.7116 42.6444C21.6385 42.736 20.5591 42.577 19.5543 42.1794C18.5495 41.7817 17.6454 41.1556 16.9098 40.3481C16.1741 39.5406 15.626 38.5726 15.3065 37.5167C15.043 36.6456 14.8926 34.1731 14.9381 32.7202Z" fill="#155EEF"/>
<rect x="21.0539" y="23.0882" width="2.29312" height="13.7587" rx="1.01916" fill="#155EEF"/>
<path d="M28.1521 16.4635C28.715 16.4635 29.1713 16.9198 29.1713 17.4827L29.1713 20.7719C29.1713 21.3348 28.715 21.7911 28.1521 21.7911L27.8883 21.7911C27.3402 21.7911 26.8902 21.3576 26.8698 20.8099L26.8335 19.835C26.8132 19.2908 26.3686 18.8587 25.8241 18.8538L15.9131 18.7656C15.3538 18.7606 14.903 18.3058 14.903 17.7465L14.903 17.4827C14.903 16.9198 15.3593 16.4635 15.9221 16.4635L28.1521 16.4635Z" fill="#155EEF"/>
</svg>
